HIERARCHY
ROOT Hips
{
  OFFSET 0.000000 0.000000 0.000000
  CHANNELS 6 Xposition Yposition Zposition Xrotation Yrotation Zrotation
  JOINT Spine
  {
    OFFSET 1.471354 23.290033 -6.106481
    CHANNELS 3 Xrotation Yrotation Zrotation
    JOINT Chest
    {
      OFFSET 1.471354 23.290033 -6.106481
      CHANNELS 3 Xrotation Yrotation Zrotation
      JOINT Neck
      {
        OFFSET -2.554482 8.383535 -1.440578
        CHANNELS 3 Xrotation Yrotation Zrotation
        JOINT Head
        {
          OFFSET -6.488949 6.596687 -1.313551
          CHANNELS 3 Xrotation Yrotation Zrotation
          End Site
          {
            OFFSET -1.946685 1.979006 -0.394065
          }
        }
      }
      JOINT LeftShoulder
      {
        OFFSET 4.445460 -1.571870 -16.227993
        CHANNELS 3 Xrotation Yrotation Zrotation
        JOINT LeftArm
        {
          OFFSET -5.835221 -22.551993 -2.146173
          CHANNELS 3 Xrotation Yrotation Zrotation
          JOINT LeftForeArm
          {
            OFFSET -12.437178 -19.553858 5.324733
            CHANNELS 3 Xrotation Yrotation Zrotation
            JOINT LeftHand
            {
              OFFSET -3.243800 -4.801626 -2.197453
              CHANNELS 3 Xrotation Yrotation Zrotation
              End Site
              {
                OFFSET -0.973140 -1.440488 -0.659236
              }
            }
          }
        }
      }
      JOINT RightShoulder
      {
        OFFSET -4.445460 1.571870 16.227993
        CHANNELS 3 Xrotation Yrotation Zrotation
        JOINT RightArm
        {
          OFFSET 15.000000 -5.000000 0.000000
          CHANNELS 3 Xrotation Yrotation Zrotation
          JOINT RightForeArm
          {
            OFFSET 12.000000 -8.000000 0.000000
            CHANNELS 3 Xrotation Yrotation Zrotation
            JOINT RightHand
            {
              OFFSET 5.000000 -5.000000 0.000000
              CHANNELS 3 Xrotation Yrotation Zrotation
              End Site
              {
                OFFSET 1.500000 -1.500000 0.000000
              }
            }
          }
        }
      }
    }
  }
  JOINT LeftUpLeg
  {
    OFFSET 5.983835 -1.012600 -8.641845
    CHANNELS 3 Xrotation Yrotation Zrotation
    JOINT LeftLeg
    {
      OFFSET 2.259026 -41.160902 2.325652
      CHANNELS 3 Xrotation Yrotation Zrotation
      JOINT LeftFoot
      {
        OFFSET 27.481258 -16.640986 16.500056
        CHANNELS 3 Xrotation Yrotation Zrotation
        End Site
        {
          OFFSET 8.244378 -4.992296 4.950017
        }
      }
    }
  }
  JOINT RightUpLeg
  {
    OFFSET -5.983835 1.012600 8.641845
    CHANNELS 3 Xrotation Yrotation Zrotation
    JOINT RightLeg
    {
      OFFSET -9.973435 -38.659740 8.660418
      CHANNELS 3 Xrotation Yrotation Zrotation
      JOINT RightFoot
      {
        OFFSET -10.566743 -41.878031 2.772515
        CHANNELS 3 Xrotation Yrotation Zrotation
        End Site
        {
          OFFSET -3.170023 -12.563409 0.831755
        }
      }
    }
  }
}
MOTION
Frames: 8
Frame Time: 0.083333
-0.004364 30.020845 34.106227 4.985583 0.471167 3.615134 0.000000 0.000000 0.000000 -8.304089 -2.208840 -8.063071 -0.874852 -8.776196 -4.814939 5.000000 0.000000 0.000000 -10.479608 5.312286 21.158069 40.261028 -17.879990 -4.247321 55.217091 -1.866038 -37.952557 0.000000 0.000000 0.000000 11.235746 -13.904498 -77.764746 -22.378782 -2.146696 70.149398 95.062994 12.569455 57.417556 0.000000 0.000000 0.000000 24.876508 0.256131 -6.362744 -7.513587 -2.875569 -41.315578 0.000000 0.000000 0.000000 31.339989 -13.142342 9.750485 -44.716824 21.423206 14.220580 0.000000 0.000000 0.000000
-0.004323 30.020984 34.201317 4.906482 0.510663 3.761655 0.000000 0.000000 0.000000 -8.254806 -2.240350 -8.214086 -0.880336 -8.798456 -4.795172 5.000000 0.000000 0.000000 -9.609484 5.058770 21.654126 40.105908 -18.148416 -4.960643 55.084204 -1.343634 -38.336005 0.000000 0.000000 0.000000 11.051948 -13.664169 -77.428379 -21.933650 -1.743428 70.010889 93.575715 12.714770 57.252330 0.000000 0.000000 0.000000 25.120297 0.097526 -6.590058 -7.456323 -2.371107 -41.472965 0.000000 0.000000 0.000000 31.467939 -13.354755 9.544889 -44.363888 21.208235 13.952216 0.000000 0.000000 0.000000
-0.004361 30.021090 34.313780 4.793121 0.575652 4.008478 0.000000 0.000000 0.000000 -8.174172 -2.270726 -8.421893 -0.895436 -8.790272 -4.777735 5.000000 0.000000 0.000000 -9.256325 4.917919 21.861103 39.767791 -18.217435 -5.370794 55.555726 -1.577973 -38.335456 0.000000 0.000000 0.000000 10.704401 -13.280120 -76.998332 -21.302587 -1.070234 69.894776 86.420153 11.652781 58.476973 0.000000 0.000000 0.000000 25.424494 0.035128 -6.655704 -7.489825 -2.245969 -41.538008 0.000000 0.000000 0.000000 31.717294 -13.451116 9.490536 -44.198553 21.074132 13.727845 0.000000 0.000000 0.000000
-0.004435 30.021171 34.441737 4.591484 0.610183 4.075018 0.000000 0.000000 0.000000 -7.949176 -2.271050 -8.399969 -0.924096 -8.739508 -4.803951 5.000000 0.000000 0.000000 -9.323723 4.925528 21.982829 39.967267 -18.435255 -5.464667 55.583634 -1.488343 -38.404623 0.000000 0.000000 0.000000 10.227630 -12.590923 -76.441863 -20.350444 -0.099826 69.879285 78.384801 10.283253 59.540596 0.000000 0.000000 0.000000 25.608722 0.036384 -6.656250 -7.524420 -1.994107 -41.613848 0.000000 0.000000 0.000000 31.845428 -13.480526 9.477115 -43.953631 20.917980 13.554093 0.000000 0.000000 0.000000
-0.004454 30.021264 34.585848 4.532087 0.614868 4.069488 0.000000 0.000000 0.000000 -7.874676 -2.256995 -8.334432 -0.943589 -8.717582 -4.824792 5.000000 0.000000 0.000000 -9.352200 4.924246 22.053951 40.092149 -18.559418 -5.561481 54.842140 -0.960635 -38.500290 0.000000 0.000000 0.000000 9.678368 -11.606459 -76.153960 -19.104383 0.706208 70.057438 72.654329 8.956736 60.558331 0.000000 0.000000 0.000000 25.790750 0.036477 -6.654108 -7.582013 -1.886084 -41.674389 0.000000 0.000000 0.000000 32.002705 -13.517358 9.461616 -43.926254 20.842443 13.444677 0.000000 0.000000 0.000000
-0.004422 30.021360 34.740515 4.463980 0.620120 4.062632 0.000000 0.000000 0.000000 -7.795043 -2.252870 -8.292048 -0.959946 -8.713343 -4.839591 5.000000 0.000000 0.000000 -9.323693 4.929977 22.073539 40.379054 -18.674054 -5.627555 52.994673 0.329946 -38.755854 0.000000 0.000000 0.000000 9.280115 -10.787073 -75.995340 -18.183262 1.246831 70.157730 70.595745 8.306993 61.103487 0.000000 0.000000 0.000000 25.984017 0.033224 -6.644843 -7.627235 -1.809251 -41.791839 0.000000 0.000000 0.000000 32.165035 -13.554593 9.447742 -43.938252 20.795937 13.412187 0.000000 0.000000 0.000000
-0.004387 30.021422 34.891748 4.388227 0.626324 4.056662 0.000000 0.000000 0.000000 -7.738103 -2.268809 -8.275300 -0.987434 -8.752062 -4.806789 5.000000 0.000000 0.000000 -9.195280 4.915664 22.104887 40.517453 -18.717898 -5.775828 51.026862 1.642524 -38.993584 0.000000 0.000000 0.000000 9.116938 -10.346616 -76.046290 -17.749799 1.424349 70.267309 71.719563 8.504368 60.981525 0.000000 0.000000 0.000000 26.105917 0.035816 -6.646087 -7.682648 -1.835423 -41.907636 0.000000 0.000000 0.000000 32.244967 -13.579720 9.429271 -43.971763 20.767331 13.381007 0.000000 0.000000 0.000000
-0.004352 30.021459 35.019016 4.372089 0.627511 4.054748 0.000000 0.000000 0.000000 -7.756228 -2.284840 -8.275112 -1.013765 -8.804921 -4.755136 5.000000 0.000000 0.000000 -8.929452 4.818550 22.146252 40.417369 -18.629732 -5.993109 49.610155 2.577472 -39.167584 0.000000 0.000000 0.000000 9.071025 -10.225425 -76.093886 -17.664478 1.383171 70.304658 72.305984 8.583770 60.966843 0.000000 0.000000 0.000000 26.001091 0.078425 -6.652400 -7.754517 -1.943800 -42.008810 0.000000 0.000000 0.000000 32.116900 -13.571484 9.401993 -44.101663 20.781258 13.399172 0.000000 0.000000 0.000000
